<svg id="Layer_1" enable-background="new 0 0 509.949 509.949" height="512" viewBox="0 0 509.949 509.949" width="512" xmlns="http://www.w3.org/2000/svg"><path d="m433.47 74.419c-99.22-99.218-259.818-99.23-359.051 0-99.218 99.218-99.232 259.818 0 359.051 99.22 99.218 259.818 99.23 359.051 0 99.218-99.218 99.232-259.819 0-359.051z" fill="#a2d0f9"/><path d="m266.4 315.157c-100.986-71.607-203.948-74.623-266.272-67.069-3.227 143.488 112.019 259.742 253.816 259.742 115.205 0 211.296-76.422 242.773-179.201-58.175 29.849-142.439 48.841-230.317-13.472z" fill="#b4dcf9"/><path d="m260.097 82.104c-13.12-17.395-29.455-18.64-41.42-20.248-9.815-1.319-15.438-11.889-10.988-20.776l5.761-11.505c6.063-12.107-4.778-25.842-17.979-22.737-67.687 15.961-126.547 59.788-161.486 120.245-2.394 4.143-2.809 9.139-1.13 13.618l26.613 71.044-15.221 95.134c-2.532 5.654-10.315 23.053-19.418 43.588-1.901 4.287-1.824 9.193.209 13.42 32.588 67.736 94.481 118.778 168.991 136.812 9.213 2.229 18.316-3.998 19.612-13.354l16.688-120.409c3.624-26.145-12.838-51.128-38.292-58.113l-46.503-12.762c-15.57-4.273-21.303-23.469-10.593-35.577l22.085-24.972c4.891-5.53 5.575-4.736 56.153-25.077 28.117-11.309 48.3-36.963 52.674-66.952l3.615-24.785c1.904-13.061-1.424-26.057-9.371-36.594z" fill="#91c656"/><path d="m483.566 313.756c-40.439-69.734-121.448-104.828-199.129-85.556-5.62 1.394-10.048 5.716-11.579 11.3-31.338 114.321 56.902 218.173 129.297 218.173 67.443 0 120.92-75.788 81.411-143.917z" fill="#aced70"/><path d="m269.468 118.696c3.941-27.024-14.909-52.019-41.977-55.655-8.587-1.154-15.5-.888-19.655-8.745-2.208-4.175-2.262-8.992-.146-13.216l5.761-11.505c6.063-12.107-4.778-25.842-17.979-22.737-67.688 15.961-126.548 59.788-161.487 120.245-2.394 4.143-2.809 9.139-1.13 13.618l26.613 71.044-4.615 28.847c15.229-3.135 31.848-10.377 49.071-24.155 47.683-38.147 90.256-69.626 160.576-65.873 1.136-4.862 1.06-5.071 4.968-31.868z" fill="#9bd65e"/><path d="m487.358 320.927c-28.242-7.42-59.476-5.138-92.142 14.902-47.536 29.163-85.33 31.991-113.782 24.543 15.082 34.844 40.198 63.224 70.333 82.242 81.072 51.164 176.292-37.202 135.591-121.687z" fill="#9bd65e"/><path d="m508.881 488.209c-8.823-22.979-19.916-45.217-33.207-66.643 18.674-23.224 26.266-53.615 18.018-83.768 57.351-164.358-64.295-337.741-239.748-337.741-140.315 0-253.887 113.551-253.887 253.887 0 140.316 113.552 253.887 253.887 253.887 55.388 0 108.051-17.643 151.622-50.229 16.447-.63 32.097-5.799 45.812-14.413 10.955 18.249 20.183 37.096 27.629 56.49 3.173 8.264 12.439 12.364 20.672 9.201 8.25-3.166 12.369-12.421 9.202-20.671zm-468.317-173.099c-12.8-44.901-11.324-94.107 5.518-139.096l13.385 35.731c-17.336 108.35-13.792 91.927-18.903 103.365zm158.067 47.431-14.16 102.169c-56.007-18.519-101.085-58.024-127.326-108.18 9.613-21.65 17.083-38.307 17.165-38.489 1.237-2.756-.33 5.544 17.424-105.418.921-5.756 1.118-2.979-26.205-75.918 25.586-41.009 64-72.599 108.647-89.852-.354 23.885 17.315 43.638 40.238 46.718l8.814 1.185c9.398 1.263 15.942 9.94 14.574 19.322l-3.615 24.786c-2.736 18.759-15.361 34.807-32.949 41.88-68.156 27.411-53.704 17.196-90.268 58.538-26.35 29.795-12.295 77.1 26.095 87.637l46.503 12.762c10.013 2.748 16.489 12.575 15.063 22.86zm17.058 110.025 14.64-105.631c3.624-26.145-12.838-51.128-38.292-58.113l-46.503-12.762c-15.57-4.273-21.303-23.469-10.593-35.577l22.085-24.972c4.891-5.53 5.575-4.736 56.153-25.077 28.117-11.309 48.3-36.963 52.674-66.952l3.615-24.785c1.904-13.06-1.424-26.055-9.371-36.592-13.12-17.395-29.455-18.64-41.42-20.248-9.815-1.319-15.438-11.889-10.988-20.776l2.355-4.703c154.323-30.808 291.614 103.86 261.805 259.661-44.01-58.886-117.728-85.126-187.412-67.838-5.62 1.394-10.048 5.716-11.579 11.3-21.345 77.867 11.202 160.387 78.908 203.115 3.209 2.025 6.481 3.839 9.8 5.461-44.903 24.984-96.611 33.001-145.877 24.489zm153.156-57.013c-53.45-33.728-79.875-97.455-67.355-158.287 61.331-10.971 122.863 18.165 154.395 72.543 13.867 23.913 10.208 46.719.546 63.379-19.243-26.067-41.947-50.782-68.009-73.982-6.6-5.875-16.714-5.287-22.589 1.313-5.875 6.601-5.288 16.714 1.313 22.59 25.817 22.982 48.07 47.494 66.643 73.356-20.156 12.386-43.796 12.434-64.944-.912z"/></svg>